<svg xmlns="http://www.w3.org/2000/svg" width="750px" height="300px" class="drawing" stroke="10px"><path stroke="#000000" fill="none" class="path" d="M 504 224 L 498 225 L 492 225 L 489 225 L 488 225 L 486 225 L 485 217 L 481 192 L 481 156 L 481 122 L 481 97 L 481 80 L 488 68 L 498 66 L 525 66 L 557 80 L 605 117 L 645 160 L 678 210 L 693 238 L 706 281 L 706 304 L 694 326 L 673 350 L 658 361 L 638 370 L 625 373 L 612 373 L 608 373 L 597 370 L 588 362 L 578 354"/><path stroke="#000000" fill="none" class="path" d="M 541 246 L 540 246 L 540 246 L 538 246 L 540 246 L 546 244 L 573 233 L 620 216 L 677 193 L 733 178 L 776 168 L 825 158 L 865 153 L 888 150 L 905 149 L 916 146 L 922 146 L 924 145 L 925 145 L 925 145 L 924 145 L 898 145 L 842 149 L 758 165 L 700 178 L 640 194 L 614 202 L 593 209 L 584 212 L 578 213 L 576 213 L 572 213 L 566 209 L 564 200 L 564 186 L 564 172 L 569 157 L 585 148 L 602 145 L 626 145 L 646 148 L 662 161 L 674 181 L 677 200 L 676 221 L 658 241 L 612 268 L 592 274 L 536 282 L 505 282 L 482 273 L 470 260 L 466 246 L 466 232 L 474 220 L 492 206 L 512 197 L 522 193 L 534 189 L 540 188"/><path stroke="#000000" fill="none" class="path" d="M "/><path stroke="#000000" fill="none" class="path" d="M "/></svg>