<svg xmlns="http://www.w3.org/2000/svg" width="700" height="350" class="drawing"><path stroke="#000000" fill="none" class="path" d="M 241.4921875 166.609375 L 216.4921875 174.609375 L 202.4921875 177.609375 L 187.4921875 180.609375 L 178.4921875 181.609375 L 165.4921875 181.609375 L 157.4921875 181.609375 L 148.4921875 181.609375 L 145.4921875 175.609375 L 145.4921875 162.609375 L 145.4921875 145.609375 L 153.4921875 127.609375 L 174.4921875 108.609375 L 217.4921875 81.609375 L 259.4921875 66.609375 L 294.4921875 60.609375 L 351.4921875 55.609375 L 375.4921875 58.609375 L 391.4921875 70.609375 L 405.4921875 90.609375 L 412.4921875 108.609375 L 417.4921875 135.609375 L 420.4921875 160.609375 L 420.4921875 187.609375 L 415.4921875 202.609375 L 412.4921875 210.609375 L 406.4921875 220.609375 L 405.4921875 222.609375 L 403.4921875 222.609375"/><path stroke="#000000" fill="none" class="path" d="M "/><path stroke="#000000" fill="none" class="path" d="M 402.4921875 223.609375 L 400.4921875 223.609375 L 400.4921875 222.609375 L 400.4921875 219.609375 L 400.4921875 195.609375 L 412.4921875 157.609375 L 441.4921875 114.609375 L 477.4921875 73.609375 L 501.4921875 52.609375 L 537.4921875 28.609375 L 564.4921875 19.609375 L 586.4921875 19.609375 L 604.4921875 19.609375 L 621.4921875 24.609375 L 636.4921875 37.609375 L 652.4921875 61.609375 L 669.4921875 90.609375 L 679.4921875 126.609375 L 684.4921875 162.609375 L 687.4921875 204.609375 L 684.4921875 241.609375 L 672.4921875 273.609375 L 660.4921875 291.609375 L 648.4921875 304.609375 L 637.4921875 312.609375 L 631.4921875 315.609375 L 628.4921875 315.609375"/><path stroke="#000000" fill="none" class="path" d="M "/><path stroke="#000000" fill="none" class="path" d="M 628.4921875 312.609375 L 628.4921875 312.609375 L 628.4921875 312.609375 L 628.4921875 313.609375 L 628.4921875 313.609375 L 622.4921875 318.609375 L 606.4921875 324.609375 L 582.4921875 330.609375 L 553.4921875 336.609375 L 522.4921875 339.609375 L 487.4921875 340.609375 L 456.4921875 340.609375 L 414.4921875 340.609375 L 355.4921875 336.609375 L 295.4921875 327.609375 L 246.4921875 321.609375 L 186.4921875 316.609375 L 115.4921875 312.609375 L 94.4921875 312.609375 L 70.4921875 312.609375 L 55.4921875 312.609375 L 46.4921875 312.609375 L 42.4921875 312.609375 L 39.4921875 309.609375 L 36.4921875 304.609375 L 34.4921875 298.609375 L 34.4921875 292.609375 L 34.4921875 286.609375 L 34.4921875 280.609375 L 34.4921875 268.609375 L 37.4921875 258.609375 L 45.4921875 238.609375 L 49.4921875 223.609375 L 52.4921875 207.609375 L 55.4921875 192.609375 L 55.4921875 180.609375 L 55.4921875 162.609375 L 55.4921875 145.609375 L 55.4921875 130.609375 L 55.4921875 114.609375 L 55.4921875 100.609375 L 55.4921875 94.609375 L 55.4921875 90.609375 L 57.4921875 87.609375 L 63.4921875 82.609375 L 72.4921875 76.609375 L 79.4921875 70.609375 L 87.4921875 66.609375 L 94.4921875 61.609375 L 106.4921875 55.609375 L 115.4921875 52.609375 L 130.4921875 45.609375 L 138.4921875 42.609375 L 166.4921875 27.609375 L 178.4921875 19.609375 L 220.4921875 3.609375 L 567.4921875 3.609375 L 568.4921875 7.609375 L 571.4921875 12.609375 L 574.4921875 16.609375 L 577.4921875 18.609375 L 577.4921875 19.609375 L 579.4921875 19.609375"/><path stroke="#000000" fill="none" class="path" d="M "/><path stroke="#000000" fill="none" class="path" d="M 615.4921875 15.609375 L 615.4921875 15.609375 L 615.4921875 15.609375 L 615.4921875 15.609375 L 618.4921875 15.609375 L 625.4921875 15.609375 L 637.4921875 15.609375 L 654.4921875 15.609375 L 660.4921875 15.609375 L 669.4921875 15.609375 L 682.4921875 15.609375 L 690.4921875 15.609375 L 697.4921875 15.609375 L 697.4921875 37.609375 L 697.4921875 37.609375 L 696.4921875 37.609375 L 691.4921875 37.609375 L 682.4921875 37.609375 L 673.4921875 37.609375 L 669.4921875 37.609375 L 663.4921875 37.609375 L 660.4921875 37.609375 L 657.4921875 37.609375 L 655.4921875 37.609375 L 651.4921875 37.609375 L 649.4921875 37.609375 L 648.4921875 37.609375 L 646.4921875 36.609375 L 645.4921875 36.609375 L 645.4921875 36.609375 L 645.4921875 34.609375 L 645.4921875 34.609375 L 646.4921875 34.609375 L 649.4921875 34.609375 L 655.4921875 34.609375 L 679.4921875 34.609375 L 699.4921875 33.609375"/><path stroke="#000000" fill="none" class="path" d="M "/><path stroke="#000000" fill="none" class="path" d="M "/></svg>