<svg id="Layer_1" data-name="Layer 1" xmlns="http://www.w3.org/2000/svg" viewBox="0 0 500 100"><title>ex-grave-logo</title><path d="M42.9,62.3c-.3-.7,4.1-2.1,8.6-6.8,1.6-1.7,6.5-6.8,5.3-12.2s-4.7-6.3-5.4-6.7c-4.1-2.5-8.2-1.6-8.4-2.6s-1.2-.6,3.7-2.2a28,28,0,0,1,4.2-.1,14.7,14.7,0,0,1,7.1,4c3.3,3.5,2.6,5,4.3,6.3s1.9-2.4,4.2-4.9c4.1-4.5,10.5-5.4,10.8-4.7s-8,3.4-9.9,10.5a14.3,14.3,0,0,0,.2,6.9c1.6,8.2,7.1,13,6.5,13.6s-1.7-.9-5.4-3.3c-6.4-4.3-7.1-5.4-8.1-5.4s-3.2,2.6-6.1,4.5C49.4,62.6,43.2,63.1,42.9,62.3Z"/><path d="M108.3,34.3c-1.8.2-4.5,14.8,2.8,23.5,1.4,1.7,3.3,3.8,6.1,4.2,5,.7,8.1-4.7,12.2-3.3s3.6,4,4.2,3.8-1.3-5.3-2.3-10.3c-2.3-10.9.3-19.6-.5-19.7s-1.5,7-6.6,14.6c-2.3,3.4-4.6,6.8-7,6.6C111.5,53,110.4,34.1,108.3,34.3Z"/><path d="M140.6,30.9c-1.8-.2-8.3,17.1-1.9,26.4.5.8,1.4,2,2.2,1.9,2.6-.5,1.7-15.2.7-23.2C141.2,32.6,140.9,31,140.6,30.9Z"/><path d="M167.2,55.5c12.5-3.2,13.2-19.8,14.5-19.2s-.1,19.9-7.8,21.5c-.9.2-3.3.5-6.7-2.3"/><path d="M180.9,32.2a1.4,1.4,0,0,0,.8,1.8,1.5,1.5,0,0,0,1.9-1.2C183.4,32.1,181.3,31.6,180.9,32.2Z"/><path d="M139.9,25.4a2,2,0,0,1-1.8-2.2c.3-1.2,2.8-1.5,3.3-.8S141.1,25.3,139.9,25.4Z"/><path d="M202.4,12.2c-1.5,1.6-1.4,12.2-2.1,18.6-.3,2.5-.4,3.1-.9,3.3s-2-2.1-4.8-4.2c-.7-.5-4.2-3.2-7.8-1.8-1.7.6-3.3,2.1-3.2,2.8s5.1-1.3,9.8,1.5a9.9,9.9,0,0,1,3.4,3.1c3.5,5.3-2,14.4-.8,28.7.1,1.8.4,4,1.8,5.3s7.4,1.3,9.7-2.1,1.7-5.7,1.2-6-1.9,3.2-3.8,3.2-3.4-4-3.8-5.3C198.7,53,198.2,43,202,40.4c2.1-1.5,3.5.7,8.8.4s8.9-2.6,8.8-3.2-15.4,3.5-17.3-1.3c-1.1-2.7,1.9-9.1,2.1-14.4,0-1-.1-10.1-.5-10.3S202.5,12,202.4,12.2Z"/><path d="M298.1,37.2c1.2-4.6,1.2-8.5,2.9-8.8.1,0-.2,1.5.6,2s3.3-.6,4.5-1.3c2.8-1.7,2.8-2.6,4.4-3.3,3.6-1.7,9.5.7,9.9,3.2s-1.1,3.1-1.7,3-.3-.8-.9-1.5-4-1.1-4.7-1-3.1.8-5.7,3c-4.5,3.9-8.2,10.3-8.9,14.5-.1.5-.3,2.1-.8,2.1s-.7-.6-.8-1.2C296.1,44.2,298,37.3,298.1,37.2Z"/><path d="M346.4,32.5a8.5,8.5,0,0,1,4,1.4c4.6,3,5.8,17.5,7.1,26.2.1.7.4,2.4,1.2,2.7s1.3-.4,1.5-.7c2.8-2.7,2.1-11.8,6.3-18.6.6-1,2.9-4.7,5.7-4.6s2.4.9,2.6.7-1-2-2.6-2.5-6.9,1.8-9.1,5-2.4,6.4-3.2,6.3-.4-3.8-1.8-8.2-6-10.8-10.1-10.5c-2.6.2-4.8,2.8-4.6,3.2S344.6,32.5,346.4,32.5Z"/><path d="M398.3,27.7c1.1-.1,2.3-.4,3.2.3s1.2,3.1.9,5.4c-.8,5.1-2.7,11.6,0,13.5s9.4-1.4,11.2.5.3,2.2,0,3.2c-2.8,10.4-.2,14.8-3,16.3s-12.1-6.1-14.2-4a4.3,4.3,0,0,0-.6,3.2,5.7,5.7,0,0,0,.8,2.1c2,3,16.1,7.7,19.3,3,1.6-2.4-1.1-4.6-1.5-12.1A35,35,0,0,1,416.1,47c3.1-10.2,8-16.5,6-19.6-.8-1.3-.7-.8-1.9-.4s-2.1,2.7-3,6-2,6.9-2.8,7.8c-2.2,2.5-6.7,3.3-8.5,1.7s-.6-2.4-.4-7.8c.4-9.3-.9-9.3-1.5-9.8s-3.4-1.2-6.6.1C396,25.6,396.7,27.8,398.3,27.7Z"/><path d="M447.9,60.1c-.2-.8,2.1-1.3,3.7-2.9,5.3-5.1.4-18.1,2.4-18.7.3-.1.4.3,1.9.9s2.9,1.2,4,.6.8-1.3,1.3-2c1.9-2.9,10.3-2.3,11.6.7.6,1.5-.3,3.8-1.4,4a1.6,1.6,0,0,1-1.4-.5c-.8-.8-.3-1.8-.7-2.5s-3.5-.9-5.6,0-3.8,3.6-5.1,6.2-1.7,4.5-4.2,10.9c-.6,1.4-1.2,3-2.7,3.7S448.1,60.8,447.9,60.1Z"/><path d="M288.5,43.5c-.9,1.7-2.3,3.5-1.8,4.1s1.8-.6,4.2-.7,5.8,1.5,5.7,1.9-3-.8-5.9.7a5.6,5.6,0,0,0-1.9,1.5c-1.8,2.4-.2,6.5.4,8.3,2.1,6.4.9,14.8-1.7,18.7-4.4,6.6-18.9,10.1-26.6,2.2-5.4-5.5-6.3-15.6-2.2-19.6,6.2-6.1,21.9,3.2,25.3-2.2,1.5-2.4.2-7.2-.9-7.4s-.9.8-1.5,1.6c-2.4,2.9-6.8,3.4-8.9,3.2-5.3-.4-10.1-5.6-10.5-10.5-.8-9.2,14.8-19.6,21.4-14.8C285.6,32,290.9,39,288.5,43.5Zm-5.4-3.3c-.4-2.7-2.2-5.6-5-6.3-4.9-1.3-11.7,4.9-10.5,10.5a7.9,7.9,0,0,0,7,6.1C279.6,50.7,283.8,45.1,283.1,40.2Zm-1.9,26.5c-2.6-5.1-14.3-5.6-17.3-.7s2.1,14.4,8,14.7S283.7,71.6,281.2,66.7Z"/><path d="M337.9,33.8c1.8-.3,3.1-1.4,3.7-1s-.2,1.5-.7,2.8c-1.1,3-1.6,4.2-1.3,9.7.2,3.3,1.7,6.3,1.4,6.3s-3.7-1.8-3.5-4.3,0,0-3.7,3.7-8.3,5.1-12.7,2-5.4-13.1-3.6-16.4,6.6-6,11.3-5.6S334.2,34.5,337.9,33.8Zm-10.8,2.3a6.3,6.3,0,0,0-4.8,2.1c-2.2,2.7-1.5,7.5,1.4,9.3s5.7.1,6,0c2.3-1.2,4.6-4.1,3.7-7.2S329.6,36.1,327.1,36.1Z"/><path d="M385.2,57.5a47.7,47.7,0,0,0,5.5,1.9c3.3,1,4.2,1.3,4.2,1.7s-2.9,1.5-5.5,1.5c-.9,0-8.2,0-12.3-5.9s-2.7-13.1,1.3-17.6c6.7-7.5,20.4-4.6,21.4-1.3.3,1.1-.5,3.8-1.4,4.8-5.7,6.3-14.8,1.8-16.8,6S382.5,55.8,385.2,57.5Zm7.3-18a2.1,2.1,0,0,0-.4-2.1c-2.1-1.8-10.3,3.2-9.8,4.5S391.5,42.8,392.4,39.5Z"/><path d="M440.1,40.1a10.1,10.1,0,0,1,1.3-1c.9-.5,1.3-.8,1.6-.7s.5,3,.4,7.1a41.8,41.8,0,0,0,.2,5.7c.6,5.2,2.8,8.4,2.2,8.7s-1.6-1-2.4-2.2-1.2-3.9-1.5-3.8-.1.7-.3,1.6a6.1,6.1,0,0,1-1.5,2.6,12.8,12.8,0,0,1-8.8,4.6c-5.3,0-9.2-4.2-10.8-8-.1-.3-3-7.4,1.1-12.5s8.7-5.3,12.5-3.7C436,39.1,438.9,41.1,440.1,40.1Zm-7.9,4c-3.6-1.1-7.7,2.1-7.7,5.9a6.3,6.3,0,0,0,6.9,5.9,5.9,5.9,0,0,0,4.7-4.1A6.3,6.3,0,0,0,432.2,44.1Z"/><path d="M479.6,40c1.8-7.5,2.7-11.3,4-13.4s3.4-13.9,7.4-14.1c.9,0,2.3,8.2,2.5,8.7s-2.4,1.8-3.9,2.8c-5.1,3.3-2.7,10.6-5.3,26.1-.7,4.1-1.5,7.6-.1,11.3.3.7,1.2,2.8.8,3.1s-1.3-1.6-3-2-3,1.4-5,2.3c-3.4,1.6-9.1.4-11.4-3s-.3-12.1,3.8-14.4,6-.1,8.5-2.6S478.9,43,479.6,40Zm-5.9,12.9a3.8,3.8,0,1,0,1.4,5.9A4,4,0,0,0,473.7,52.9Z"/><path d="M215.3,51.9c1.4-5.6,7.4-9.4,8.1-9.8s5.3-3.3,8.3-2,5.7,7.7,3.7,11.1c-3.2,5.4-15.7,1.5-17.8,6.7-.8,2.1.5,4.3.7,4.6,3.8,6,18,2.1,18.3,3.7s-4.8,3.4-10,3.3c-2,0-7.7,0-10.2-3.6s-1-4.7-2.8-5.5-3.9.9-4.2.4.2-.5,1.9-2.2l1.8-1.7C214.7,55.3,215,53.1,215.3,51.9Zm16.1-4.1c.1-1.4-2.3-2.7-4.2-3-4.7-.6-8.6,5.5-7.7,7S231.3,50.7,231.4,47.8Z"/><path d="M87.6,36.5c7.9,3.5,2.3,3.8,6.1,1.9s-1.4,3.4.9,9a3.5,3.5,0,0,1-.1,3.5.8.8,0,0,0,.9,1.3c1.4-.5,2.7-1,2.9-.6s-1.4,1.7-2.2,3c-3.3,5.6,8.1,14.6,5.8,19.8S87.7,80,85.2,75.9s9.8-17.8,8-19.6-8.6,7.3-14.8,5.4-9.2-10.8-6.9-18.1c1.6-5.1,4.2-7.4,7.8-7.8S85.6,35.6,87.6,36.5Zm-7.5,7.7c-.8,2.8,3.8,10,7.2,8.4s3.5-5.4,2.6-7.9C88.3,40.5,80.9,41.3,80.1,44.2Zm13.7,21c-2.2,0-4.2,2.8-3.5,5s4.2,3.5,6,2.2,1.4-2.9.9-4.3S95.4,65.2,93.7,65.2Z"/><path d="M37.4,51.5c-3,5.7-17.7,1.3-19.3,6-.8,2.5,2.1,6.5,5.4,7.8C29.7,68,40.1,62.6,40.4,63h0c.5,1-9.1,12.9-19.9,9.7-8.3-2.5-12-12.4-10.9-19.9C11,43.3,20.4,34.3,28.3,36.5S39.6,47.3,37.4,51.5Zm-7.5-.7a5.8,5.8,0,0,0,1.5-3.9c-.2-3.2-4.1-6.2-7.5-5.3s-5.7,5.1-5.1,7.6S26.7,54.4,29.9,50.8Z"/><path d="M147.4,53.9c7.5-1.7,6.9-23.2,10.7-23.9s15.2,17.1,7.8,25.7c-3.5,4.1-10.3,5.1-15.2,3.6-2.9-.9-6.5-3.2-6.1-4.4S146.5,54.1,147.4,53.9ZM163,52.4c.9-1.2.5-2.8-.1-5.4s-1.6-6.5-3.2-6.6-1.7,8-4,11.8C154.3,54.3,161.6,54.2,163,52.4Z"/></svg>